<?xml version="1.0" encoding="UTF-8"?>
<!-- Generator: Adobe Illustrator 18.1.1, SVG Export Plug-In . SVG Version: 6.00 Build 0)  -->
<svg version="1.1" id="Layer_1" xmlns="http://www.w3.org/2000/svg" xmlns:xlink="http://www.w3.org/1999/xlink" x="0px" y="0px" viewBox="287 371 38 50" enable-background="new 287 371 38 50" xml:space="preserve">
<path fill="none" stroke="#CCCCCC" stroke-width="2" stroke-linecap="round" stroke-miterlimit="10" d="M290,420c-1.1,0-2-0.9-2-2  v-24c0-1.1,0.9-2,2-2h32c1.1,0,2,0.9,2,2v24c0,1.1-0.9,2-2,2H290z"/>
<path fill="none" stroke="#CCCCCC" stroke-width="2" stroke-linecap="round" stroke-miterlimit="10" d="M315.6,384.1  c0,0-1.1-3.6-1.3-4.3c-1.8-5.8-8-9.1-13.8-7.3c-5.8,1.8-9.1,8-7.3,13.8c0.3,1.1,1.8,5.7,1.8,5.7"/>
<path fill="#CCCCCC" d="M309,404c0-1.7-1.3-3-3-3s-3,1.3-3,3c0,0.9,0.4,1.7,1,2.2v2.8c0,1.1,0.9,2,2,2s2-0.9,2-2v-2.8  C308.6,405.7,309,404.9,309,404z"/>
</svg>